<svg xmlns="http://www.w3.org/2000/svg" width="1440" height="980" viewBox="0 0 1440 980">
  <defs>
    <style>
      .bg { fill: #f4f7fb; }
      .panel { fill: #ffffff; stroke: #dbe4ef; stroke-width: 1.2; }
      .soft { fill: #eef5ff; }
      .nav { fill: #163b63; }
      .nav2 { fill: #245783; }
      .primary { fill: #1f6fbf; }
      .accent { fill: #24a36b; }
      .warn { fill: #f2a93b; }
      .danger { fill: #df5a50; }
      .muted { fill: #7a8da3; }
      .text { fill: #1d2b3a; font-family: "Microsoft YaHei", "PingFang SC", Arial, sans-serif; }
      .white { fill: #ffffff; font-family: "Microsoft YaHei", "PingFang SC", Arial, sans-serif; }
      .small { font-size: 18px; }
      .tiny { font-size: 15px; }
      .label { font-size: 20px; font-weight: 600; }
      .title { font-size: 28px; font-weight: 700; }
      .h1 { font-size: 34px; font-weight: 700; }
      .shadow { filter: drop-shadow(0 10px 24px rgba(22, 59, 99, 0.12)); }
      .line { stroke: #dbe4ef; stroke-width: 1.2; }
      .line2 { stroke: #b8c7d8; stroke-width: 1.4; }
      .dash { stroke: #b8c7d8; stroke-width: 1.4; stroke-dasharray: 6 6; }
    </style>
  </defs>

  <rect class="bg" width="1440" height="980"/>

  <text class="text h1" x="64" y="64">学生端 Web 网页原型总览</text>
  <text class="text small muted" x="64" y="98">响应式浏览器访问：桌面端用于完整信息浏览，移动端用于高频查询、提醒和申请提交</text>

  <!-- Desktop web prototype -->
  <g transform="translate(64 136)">
    <rect class="panel shadow" x="0" y="0" width="900" height="760" rx="18"/>
    <rect fill="#eef2f7" x="0" y="0" width="900" height="48" rx="18"/>
    <rect fill="#eef2f7" x="0" y="30" width="900" height="18"/>
    <circle fill="#df5a50" cx="28" cy="24" r="7"/>
    <circle fill="#f2a93b" cx="52" cy="24" r="7"/>
    <circle fill="#24a36b" cx="76" cy="24" r="7"/>
    <rect fill="#ffffff" stroke="#d5deea" x="116" y="12" width="520" height="24" rx="12"/>
    <text class="text tiny muted" x="142" y="30">https://service.example.edu.cn/student</text>
    <text class="text tiny muted" x="760" y="30">Chrome / Edge / Safari</text>

    <rect class="nav" x="0" y="48" width="192" height="712" rx="0"/>
    <text class="white label" x="28" y="92">学院服务平台</text>
    <text class="white tiny" x="28" y="122">学生端网页</text>
    <rect class="nav2" x="18" y="160" width="156" height="42" rx="8"/>
    <text class="white small" x="50" y="187">首页</text>
    <text class="white small" x="50" y="246">智能咨询</text>
    <text class="white small" x="50" y="304">党团流程</text>
    <text class="white small" x="50" y="362">通知公告</text>
    <text class="white small" x="50" y="420">证明申请</text>
    <text class="white small" x="50" y="478">成绩分析</text>
    <text class="white tiny" x="28" y="704">普通学生</text>
    <text class="white tiny" x="28" y="730">2023120000</text>

    <rect fill="#ffffff" x="192" y="48" width="708" height="712"/>
    <text class="text title" x="224" y="98">上午好，张同学</text>
    <text class="text small muted" x="224" y="128">待办 2 项 · 未读通知 5 条 · 当前党团阶段：入党积极分子培养</text>
    <rect fill="#f6f9fd" stroke="#dbe4ef" x="650" y="76" width="204" height="40" rx="20"/>
    <text class="text tiny muted" x="676" y="102">搜索政策、流程、模板</text>

    <g transform="translate(224 162)">
      <rect class="panel" x="0" y="0" width="146" height="110" rx="10"/>
      <circle class="primary" cx="32" cy="34" r="16"/>
      <text class="text label" x="22" y="72">智能咨询</text>
      <text class="text tiny muted" x="22" y="96">政策问答</text>

      <rect class="panel" x="166" y="0" width="146" height="110" rx="10"/>
      <circle class="accent" cx="198" cy="34" r="16"/>
      <text class="text label" x="188" y="72">党团流程</text>
      <text class="text tiny muted" x="188" y="96">进度追踪</text>

      <rect class="panel" x="332" y="0" width="146" height="110" rx="10"/>
      <circle class="warn" cx="364" cy="34" r="16"/>
      <text class="text label" x="354" y="72">通知公告</text>
      <text class="text tiny muted" x="354" y="96">精准推送</text>

      <rect class="panel" x="498" y="0" width="146" height="110" rx="10"/>
      <circle class="danger" cx="530" cy="34" r="16"/>
      <text class="text label" x="520" y="72">证明申请</text>
      <text class="text tiny muted" x="520" y="96">在线提交</text>
    </g>

    <g transform="translate(224 302)">
      <rect class="panel" x="0" y="0" width="396" height="224" rx="10"/>
      <text class="text label" x="24" y="36">党团进度</text>
      <line class="line2" x1="48" y1="94" x2="330" y2="94"/>
      <circle class="accent" cx="48" cy="94" r="12"/>
      <circle class="accent" cx="142" cy="94" r="12"/>
      <circle class="primary" cx="236" cy="94" r="14"/>
      <circle fill="#ffffff" stroke="#b8c7d8" stroke-width="3" cx="330" cy="94" r="12"/>
      <text class="text tiny" x="24" y="132">申请递交</text>
      <text class="text tiny" x="112" y="132">谈话完成</text>
      <text class="text tiny" x="206" y="132">培养考察</text>
      <text class="text tiny muted" x="304" y="132">支部讨论</text>
      <rect class="soft" x="24" y="162" width="348" height="38" rx="8"/>
      <text class="text tiny" x="42" y="186">下一步：本周五前提交思想汇报</text>

      <rect class="panel" x="420" y="0" width="224" height="224" rx="10"/>
      <text class="text label" x="444" y="36">待办提醒</text>
      <circle class="warn" cx="448" cy="78" r="6"/>
      <text class="text tiny" x="466" y="84">思想汇报待提交</text>
      <text class="text tiny muted" x="466" y="108">截止 2026-05-18</text>
      <line class="line" x1="444" y1="128" x2="620" y2="128"/>
      <circle class="danger" cx="448" cy="160" r="6"/>
      <text class="text tiny" x="466" y="166">证明申请需补充材料</text>
      <text class="text tiny muted" x="466" y="190">请上传身份证明附件</text>
    </g>

    <g transform="translate(224 556)">
      <rect class="panel" x="0" y="0" width="396" height="150" rx="10"/>
      <text class="text label" x="24" y="36">政策咨询</text>
      <rect fill="#f6f9fd" stroke="#dbe4ef" x="24" y="56" width="348" height="38" rx="19"/>
      <text class="text tiny muted" x="44" y="80">输入关键词，如 奖学金 / 档案 / 宿舍</text>
      <rect class="primary" x="278" y="104" width="94" height="30" rx="15"/>
      <text class="white tiny" x="306" y="125">查询</text>

      <rect class="panel" x="420" y="0" width="224" height="150" rx="10"/>
      <text class="text label" x="444" y="36">最新通知</text>
      <text class="text tiny" x="444" y="70">就业办：春招信息汇总</text>
      <text class="text tiny muted" x="444" y="100">保卫处：校园安全提醒</text>
      <text class="text tiny muted" x="444" y="130">后勤：宿舍维修通知</text>
    </g>
  </g>

  <!-- Mobile web prototype -->
  <g transform="translate(1020 136)">
    <rect class="panel shadow" x="0" y="0" width="356" height="760" rx="36"/>
    <rect fill="#101820" x="20" y="20" width="316" height="720" rx="28"/>
    <rect fill="#ffffff" x="32" y="46" width="292" height="668" rx="22"/>
    <rect fill="#eef2f7" x="32" y="46" width="292" height="44" rx="22"/>
    <rect fill="#eef2f7" x="32" y="70" width="292" height="20"/>
    <rect fill="#ffffff" stroke="#d5deea" x="54" y="58" width="248" height="22" rx="11"/>
    <text class="text tiny muted" x="82" y="74">service.example.edu.cn</text>

    <rect class="primary" x="32" y="90" width="292" height="96"/>
    <text class="white label" x="56" y="126">学生端网页</text>
    <text class="white tiny" x="56" y="154">待办 2 项 · 未读 5 条</text>
    <rect fill="#ffffff" opacity="0.18" x="238" y="112" width="62" height="44" rx="12"/>
    <text class="white tiny" x="252" y="140">登录</text>

    <g transform="translate(52 208)">
      <rect class="soft" x="0" y="0" width="252" height="40" rx="20"/>
      <text class="text tiny muted" x="20" y="26">搜索政策、流程、模板</text>
    </g>

    <g transform="translate(52 270)">
      <rect class="panel" x="0" y="0" width="112" height="72" rx="10"/>
      <text class="text tiny" x="22" y="30">智能咨询</text>
      <text class="text tiny muted" x="22" y="54">快速问答</text>
      <rect class="panel" x="140" y="0" width="112" height="72" rx="10"/>
      <text class="text tiny" x="162" y="30">党团流程</text>
      <text class="text tiny muted" x="162" y="54">查看进度</text>

      <rect class="panel" x="0" y="92" width="112" height="72" rx="10"/>
      <text class="text tiny" x="22" y="122">通知公告</text>
      <text class="text tiny muted" x="22" y="146">未读筛选</text>
      <rect class="panel" x="140" y="92" width="112" height="72" rx="10"/>
      <text class="text tiny" x="162" y="122">证明申请</text>
      <text class="text tiny muted" x="162" y="146">在线提交</text>
    </g>

    <g transform="translate(52 464)">
      <rect class="panel" x="0" y="0" width="252" height="102" rx="10"/>
      <text class="text label" x="18" y="32">当前进度</text>
      <line class="line2" x1="28" y1="66" x2="216" y2="66"/>
      <circle class="accent" cx="28" cy="66" r="8"/>
      <circle class="accent" cx="90" cy="66" r="8"/>
      <circle class="primary" cx="154" cy="66" r="9"/>
      <circle fill="#ffffff" stroke="#b8c7d8" stroke-width="3" cx="216" cy="66" r="8"/>
      <text class="text tiny muted" x="18" y="92">培养考察中</text>
    </g>

    <g transform="translate(52 586)">
      <rect class="panel" x="0" y="0" width="252" height="74" rx="10"/>
      <circle class="warn" cx="22" cy="26" r="6"/>
      <text class="text tiny" x="40" y="31">思想汇报待提交</text>
      <text class="text tiny muted" x="40" y="56">截止 2026-05-18</text>
    </g>

    <rect fill="#ffffff" stroke="#dbe4ef" x="32" y="666" width="292" height="48"/>
    <text class="text tiny" x="58" y="696">首页</text>
    <text class="text tiny muted" x="126" y="696">咨询</text>
    <text class="text tiny muted" x="196" y="696">通知</text>
    <text class="text tiny muted" x="264" y="696">我的</text>
  </g>

  <text class="text small muted" x="64" y="940">图 5-1 学生端网页原型总览：同一套 Web 学生端在桌面浏览器与移动端浏览器中的响应式呈现</text>
</svg>
